<svg width="240" height="240" xmlns="http://www.w3.org/2000/svg" xmlns:xlink="http://www.w3.org/1999/xlink">

<line x1="149.307" y1="121.356" x2="153.896" y2="134.706" stroke="#333" stroke-width="1.4"/>
<line x1="149.307" y1="121.356" x2="134.288" y2="116.558" stroke="#333" stroke-width="1.4"/>
<line x1="149.307" y1="121.356" x2="148.472" y2="105.92" stroke="#333" stroke-width="1.4"/>
<line x1="149.307" y1="121.356" x2="160.571" y2="116.558" stroke="#333" stroke-width="1.4"/>
<line x1="189.147" y1="154.104" x2="171.626" y2="165.16" stroke="#333" stroke-width="1.4"/>
<line x1="189.147" y1="154.104" x2="171.834" y2="148.055" stroke="#333" stroke-width="1.4"/>
<line x1="189.147" y1="154.104" x2="189.147" y2="169.748" stroke="#333" stroke-width="1.4"/>
<line x1="189.147" y1="154.104" x2="201.245" y2="148.264" stroke="#333" stroke-width="1.4"/>
<line x1="40.0061" y1="162.031" x2="36.8773" y2="150.767" stroke="#333" stroke-width="1.4"/>
<line x1="40.0061" y1="162.031" x2="34.3742" y2="175.589" stroke="#333" stroke-width="1.4"/>
<line x1="40.0061" y1="162.031" x2="45.0123" y2="170.166" stroke="#333" stroke-width="1.4"/>
<line x1="69" y1="80.2638" x2="79.4294" y2="74.2147" stroke="#333" stroke-width="1.4"/>
<line x1="69" y1="80.2638" x2="83.3926" y2="88.3988" stroke="#333" stroke-width="1.4"/>
<line x1="171.626" y1="165.16" x2="165.785" y2="170.583" stroke="#333" stroke-width="1.4"/>
<line x1="171.626" y1="165.16" x2="173.92" y2="174.129" stroke="#333" stroke-width="1.4"/>
<line x1="171.626" y1="165.16" x2="171.834" y2="148.055" stroke="#333" stroke-width="1.4"/>
<line x1="135.54" y1="222.939" x2="152.227" y2="226.902" stroke="#333" stroke-width="1.4"/>
<line x1="135.54" y1="222.939" x2="118.853" y2="222.313" stroke="#333" stroke-width="1.4"/>
<line x1="135.54" y1="222.939" x2="126.571" y2="233.994" stroke="#333" stroke-width="1.4"/>
<line x1="135.54" y1="222.939" x2="140.129" y2="212.301" stroke="#333" stroke-width="1.4"/>
<line x1="152.227" y1="226.902" x2="168.08" y2="215.429" stroke="#333" stroke-width="1.4"/>
<line x1="152.227" y1="226.902" x2="148.681" y2="235.245" stroke="#333" stroke-width="1.4"/>
<line x1="152.227" y1="226.902" x2="150.35" y2="218.558" stroke="#333" stroke-width="1.4"/>
<line x1="191.859" y1="91.9448" x2="185.81" y2="114.89" stroke="#333" stroke-width="1.4"/>
<line x1="191.859" y1="91.9448" x2="182.681" y2="97.1595" stroke="#333" stroke-width="1.4"/>
<line x1="191.859" y1="91.9448" x2="196.239" y2="103.209" stroke="#333" stroke-width="1.4"/>
<line x1="134.288" y1="116.558" x2="129.699" y2="119.27" stroke="#333" stroke-width="1.4"/>
<line x1="134.288" y1="116.558" x2="148.472" y2="105.92" stroke="#333" stroke-width="1.4"/>
<line x1="134.288" y1="116.558" x2="132.202" y2="100.08" stroke="#333" stroke-width="1.4"/>
<line x1="151.81" y1="175.798" x2="151.81" y2="187.479" stroke="#333" stroke-width="1.4"/>
<line x1="151.81" y1="175.798" x2="149.098" y2="164.117" stroke="#333" stroke-width="1.4"/>
<line x1="71.0859" y1="216.055" x2="80.8896" y2="210.423" stroke="#333" stroke-width="1.4"/>
<line x1="71.0859" y1="216.055" x2="67.7485" y2="201.037" stroke="#333" stroke-width="1.4"/>
<line x1="71.0859" y1="216.055" x2="64.411" y2="226.485" stroke="#333" stroke-width="1.4"/>
<line x1="71.0859" y1="216.055" x2="83.8098" y2="226.485" stroke="#333" stroke-width="1.4"/>
<line x1="183.933" y1="193.11" x2="171.834" y2="195.822" stroke="#333" stroke-width="1.4"/>
<line x1="64.411" y1="111.135" x2="68.5828" y2="123.442" stroke="#333" stroke-width="1.4"/>
<line x1="64.411" y1="111.135" x2="85.8957" y2="112.178" stroke="#333" stroke-width="1.4"/>
<line x1="64.411" y1="111.135" x2="75.0491" y2="96.3252" stroke="#333" stroke-width="1.4"/>
<line x1="164.742" y1="125.528" x2="172.252" y2="136.374" stroke="#333" stroke-width="1.4"/>
<line x1="76.9264" y1="152.227" x2="66.2883" y2="163.908" stroke="#333" stroke-width="1.4"/>
<line x1="76.9264" y1="152.227" x2="64.411" y2="149.933" stroke="#333" stroke-width="1.4"/>
<line x1="76.9264" y1="152.227" x2="87.773" y2="160.362" stroke="#333" stroke-width="1.4"/>
<line x1="76.9264" y1="152.227" x2="81.9325" y2="140.337" stroke="#333" stroke-width="1.4"/>
<line x1="135.54" y1="65.454" x2="128.448" y2="54.816" stroke="#333" stroke-width="1.4"/>
<line x1="135.54" y1="65.454" x2="120.73" y2="75.0491" stroke="#333" stroke-width="1.4"/>
<line x1="118.853" y1="105.294" x2="125.11" y2="109.258" stroke="#333" stroke-width="1.4"/>
<line x1="118.853" y1="105.294" x2="128.239" y2="94.6564" stroke="#333" stroke-width="1.4"/>
<line x1="79.2209" y1="187.687" x2="83.8098" y2="198.951" stroke="#333" stroke-width="1.4"/>
<line x1="79.2209" y1="187.687" x2="76.092" y2="175.589" stroke="#333" stroke-width="1.4"/>
<line x1="79.2209" y1="187.687" x2="94.6564" y2="186.227" stroke="#333" stroke-width="1.4"/>
<line x1="79.2209" y1="187.687" x2="85.4785" y2="181.847" stroke="#333" stroke-width="1.4"/>
<line x1="36.4601" y1="188.313" x2="44.1779" y2="181.012" stroke="#333" stroke-width="1.4"/>
<line x1="135.748" y1="9.76074" x2="109.675" y2="8.92638" stroke="#333" stroke-width="1.4"/>
<line x1="135.748" y1="9.76074" x2="145.135" y2="25.6135" stroke="#333" stroke-width="1.4"/>
<line x1="135.748" y1="9.76074" x2="144.718" y2="1.41718" stroke="#333" stroke-width="1.4"/>
<line x1="207.086" y1="170.374" x2="189.147" y2="169.748" stroke="#333" stroke-width="1.4"/>
<line x1="151.81" y1="187.479" x2="166.202" y2="191.025" stroke="#333" stroke-width="1.4"/>
<line x1="93.1963" y1="201.245" x2="92.362" y2="196.239" stroke="#333" stroke-width="1.4"/>
<line x1="93.1963" y1="201.245" x2="83.8098" y2="198.951" stroke="#333" stroke-width="1.4"/>
<line x1="93.1963" y1="201.245" x2="113.429" y2="194.988" stroke="#333" stroke-width="1.4"/>
<line x1="93.1963" y1="201.245" x2="97.5767" y2="206.669" stroke="#333" stroke-width="1.4"/>
<line x1="106.963" y1="14.9755" x2="109.675" y2="8.92638" stroke="#333" stroke-width="1.4"/>
<line x1="139.503" y1="36.0429" x2="140.963" y2="46.2638" stroke="#333" stroke-width="1.4"/>
<line x1="139.503" y1="36.0429" x2="145.135" y2="25.6135" stroke="#333" stroke-width="1.4"/>
<line x1="139.503" y1="36.0429" x2="130.325" y2="40.6319" stroke="#333" stroke-width="1.4"/>
<line x1="64.411" y1="226.485" x2="42.092" y2="216.055" stroke="#333" stroke-width="1.4"/>
<line x1="64.411" y1="226.485" x2="45.0123" y2="229.822" stroke="#333" stroke-width="1.4"/>
<line x1="64.411" y1="226.485" x2="60.2393" y2="234.828" stroke="#333" stroke-width="1.4"/>
<line x1="64.411" y1="226.485" x2="81.3067" y2="239" stroke="#333" stroke-width="1.4"/>
<line x1="64.411" y1="226.485" x2="83.8098" y2="226.485" stroke="#333" stroke-width="1.4"/>
<line x1="108.215" y1="204.166" x2="122.19" y2="208.755" stroke="#333" stroke-width="1.4"/>
<line x1="108.215" y1="204.166" x2="111.969" y2="215.012" stroke="#333" stroke-width="1.4"/>
<line x1="108.215" y1="204.166" x2="113.429" y2="194.988" stroke="#333" stroke-width="1.4"/>
<line x1="108.215" y1="204.166" x2="97.5767" y2="206.669" stroke="#333" stroke-width="1.4"/>
<line x1="119.061" y1="148.055" x2="125.11" y2="142.84" stroke="#333" stroke-width="1.4"/>
<line x1="188.313" y1="142.423" x2="172.252" y2="136.374" stroke="#333" stroke-width="1.4"/>
<line x1="85.8957" y1="112.178" x2="75.0491" y2="96.3252" stroke="#333" stroke-width="1.4"/>
<line x1="85.8957" y1="112.178" x2="99.2454" y2="107.589" stroke="#333" stroke-width="1.4"/>
<line x1="85.8957" y1="112.178" x2="100.288" y2="116.558" stroke="#333" stroke-width="1.4"/>
<line x1="94.6564" y1="186.227" x2="92.362" y2="196.239" stroke="#333" stroke-width="1.4"/>
<line x1="94.6564" y1="186.227" x2="103.834" y2="191.025" stroke="#333" stroke-width="1.4"/>
<line x1="171.834" y1="148.055" x2="172.252" y2="136.374" stroke="#333" stroke-width="1.4"/>
<line x1="134.08" y1="155.564" x2="124.693" y2="159.945" stroke="#333" stroke-width="1.4"/>
<line x1="134.08" y1="155.564" x2="125.11" y2="142.84" stroke="#333" stroke-width="1.4"/>
<line x1="134.08" y1="155.564" x2="149.098" y2="164.117" stroke="#333" stroke-width="1.4"/>
<line x1="134.08" y1="155.564" x2="143.049" y2="147.847" stroke="#333" stroke-width="1.4"/>
<line x1="82.1411" y1="43.9693" x2="72.3374" y2="39.3804" stroke="#333" stroke-width="1.4"/>
<line x1="160.571" y1="142.84" x2="158.276" y2="157.025" stroke="#333" stroke-width="1.4"/>
<line x1="160.571" y1="142.84" x2="153.896" y2="134.706" stroke="#333" stroke-width="1.4"/>
<line x1="160.571" y1="142.84" x2="172.252" y2="136.374" stroke="#333" stroke-width="1.4"/>
<line x1="85.6871" y1="169.123" x2="87.773" y2="160.362" stroke="#333" stroke-width="1.4"/>
<line x1="85.6871" y1="169.123" x2="96.9509" y2="178.926" stroke="#333" stroke-width="1.4"/>
<line x1="85.6871" y1="169.123" x2="85.4785" y2="181.847" stroke="#333" stroke-width="1.4"/>
<line x1="99.454" y1="1" x2="109.675" y2="8.92638" stroke="#333" stroke-width="1.4"/>
<line x1="130.117" y1="190.399" x2="144.509" y2="194.988" stroke="#333" stroke-width="1.4"/>
<line x1="130.117" y1="190.399" x2="131.577" y2="179.552" stroke="#333" stroke-width="1.4"/>
<line x1="130.117" y1="190.399" x2="136.374" y2="201.454" stroke="#333" stroke-width="1.4"/>
<line x1="130.117" y1="190.399" x2="122.399" y2="173.294" stroke="#333" stroke-width="1.4"/>
<line x1="130.117" y1="190.399" x2="121.773" y2="198.951" stroke="#333" stroke-width="1.4"/>
<line x1="64.6196" y1="63.1595" x2="71.2945" y2="55.8589" stroke="#333" stroke-width="1.4"/>
<line x1="64.6196" y1="63.1595" x2="62.1166" y2="52.1043" stroke="#333" stroke-width="1.4"/>
<line x1="64.6196" y1="63.1595" x2="79.4294" y2="74.2147" stroke="#333" stroke-width="1.4"/>
<line x1="93.6135" y1="232.951" x2="81.3067" y2="239" stroke="#333" stroke-width="1.4"/>
<line x1="93.6135" y1="232.951" x2="100.914" y2="223.147" stroke="#333" stroke-width="1.4"/>
<line x1="93.6135" y1="232.951" x2="83.8098" y2="226.485" stroke="#333" stroke-width="1.4"/>
<line x1="71.2945" y1="55.8589" x2="72.3374" y2="39.3804" stroke="#333" stroke-width="1.4"/>
<line x1="71.2945" y1="55.8589" x2="82.9755" y2="58.362" stroke="#333" stroke-width="1.4"/>
<line x1="161.613" y1="104.877" x2="170.374" y2="111.135" stroke="#333" stroke-width="1.4"/>
<line x1="161.613" y1="104.877" x2="169.54" y2="95.2822" stroke="#333" stroke-width="1.4"/>
<line x1="31.0368" y1="208.963" x2="42.092" y2="216.055" stroke="#333" stroke-width="1.4"/>
<line x1="31.0368" y1="208.963" x2="27.6994" y2="222.104" stroke="#333" stroke-width="1.4"/>
<line x1="31.0368" y1="208.963" x2="23.319" y2="197.282" stroke="#333" stroke-width="1.4"/>
<line x1="128.448" y1="54.816" x2="104.669" y2="59.1963" stroke="#333" stroke-width="1.4"/>
<line x1="128.448" y1="54.816" x2="140.963" y2="46.2638" stroke="#333" stroke-width="1.4"/>
<line x1="120.73" y1="75.0491" x2="105.503" y2="90.0675" stroke="#333" stroke-width="1.4"/>
<line x1="120.73" y1="75.0491" x2="104.669" y2="59.1963" stroke="#333" stroke-width="1.4"/>
<line x1="120.73" y1="75.0491" x2="130.325" y2="82.1411" stroke="#333" stroke-width="1.4"/>
<line x1="129.699" y1="119.27" x2="122.816" y2="126.779" stroke="#333" stroke-width="1.4"/>
<line x1="129.699" y1="119.27" x2="125.11" y2="109.258" stroke="#333" stroke-width="1.4"/>
<line x1="147.012" y1="138.043" x2="125.11" y2="142.84" stroke="#333" stroke-width="1.4"/>
<line x1="147.012" y1="138.043" x2="153.896" y2="134.706" stroke="#333" stroke-width="1.4"/>
<line x1="147.012" y1="138.043" x2="139.712" y2="128.865" stroke="#333" stroke-width="1.4"/>
<line x1="164.534" y1="77.135" x2="173.294" y2="86.5215" stroke="#333" stroke-width="1.4"/>
<line x1="164.534" y1="77.135" x2="155.147" y2="84.6442" stroke="#333" stroke-width="1.4"/>
<line x1="164.534" y1="77.135" x2="159.319" y2="65.0368" stroke="#333" stroke-width="1.4"/>
<line x1="114.264" y1="118.436" x2="111.552" y2="122.816" stroke="#333" stroke-width="1.4"/>
<line x1="114.264" y1="118.436" x2="100.288" y2="116.558" stroke="#333" stroke-width="1.4"/>
<line x1="114.264" y1="118.436" x2="125.11" y2="109.258" stroke="#333" stroke-width="1.4"/>
<line x1="112.387" y1="180.804" x2="96.9509" y2="178.926" stroke="#333" stroke-width="1.4"/>
<line x1="112.387" y1="180.804" x2="113.429" y2="194.988" stroke="#333" stroke-width="1.4"/>
<line x1="112.387" y1="180.804" x2="122.399" y2="173.294" stroke="#333" stroke-width="1.4"/>
<line x1="112.387" y1="180.804" x2="105.294" y2="167.454" stroke="#333" stroke-width="1.4"/>
<line x1="112.387" y1="180.804" x2="120.521" y2="186.853" stroke="#333" stroke-width="1.4"/>
<line x1="66.2883" y1="163.908" x2="76.092" y2="175.589" stroke="#333" stroke-width="1.4"/>
<line x1="66.2883" y1="163.908" x2="59.8221" y2="160.362" stroke="#333" stroke-width="1.4"/>
<line x1="66.2883" y1="163.908" x2="87.773" y2="160.362" stroke="#333" stroke-width="1.4"/>
<line x1="155.773" y1="211.049" x2="168.08" y2="215.429" stroke="#333" stroke-width="1.4"/>
<line x1="155.773" y1="211.049" x2="140.129" y2="212.301" stroke="#333" stroke-width="1.4"/>
<line x1="155.773" y1="211.049" x2="149.307" y2="204.374" stroke="#333" stroke-width="1.4"/>
<line x1="155.773" y1="211.049" x2="150.35" y2="218.558" stroke="#333" stroke-width="1.4"/>
<line x1="158.693" y1="55.0245" x2="159.319" y2="65.0368" stroke="#333" stroke-width="1.4"/>
<line x1="158.693" y1="55.0245" x2="147.847" y2="62.1166" stroke="#333" stroke-width="1.4"/>
<line x1="149.098" y1="164.117" x2="158.276" y2="157.025" stroke="#333" stroke-width="1.4"/>
<line x1="149.098" y1="164.117" x2="165.785" y2="170.583" stroke="#333" stroke-width="1.4"/>
<line x1="122.19" y1="208.755" x2="111.969" y2="215.012" stroke="#333" stroke-width="1.4"/>
<line x1="122.19" y1="208.755" x2="140.129" y2="212.301" stroke="#333" stroke-width="1.4"/>
<line x1="122.19" y1="208.755" x2="136.374" y2="201.454" stroke="#333" stroke-width="1.4"/>
<line x1="54.1902" y1="140.755" x2="64.411" y2="149.933" stroke="#333" stroke-width="1.4"/>
<line x1="54.1902" y1="140.755" x2="64.6196" y2="135.331" stroke="#333" stroke-width="1.4"/>
<line x1="54.1902" y1="140.755" x2="51.0613" y2="126.779" stroke="#333" stroke-width="1.4"/>
<line x1="108.84" y1="136.583" x2="125.11" y2="142.84" stroke="#333" stroke-width="1.4"/>
<line x1="108.84" y1="136.583" x2="93.1963" y2="134.497" stroke="#333" stroke-width="1.4"/>
<line x1="108.84" y1="136.583" x2="108.006" y2="145.552" stroke="#333" stroke-width="1.4"/>
<line x1="83.8098" y1="226.485" x2="100.914" y2="223.147" stroke="#333" stroke-width="1.4"/>
<line x1="88.1902" y1="100.497" x2="75.0491" y2="96.3252" stroke="#333" stroke-width="1.4"/>
<line x1="148.472" y1="105.92" x2="153.896" y2="96.7423" stroke="#333" stroke-width="1.4"/>
<line x1="148.472" y1="105.92" x2="132.202" y2="100.08" stroke="#333" stroke-width="1.4"/>
<line x1="171.626" y1="225.859" x2="178.301" y2="220.436" stroke="#333" stroke-width="1.4"/>
<line x1="171.626" y1="225.859" x2="180.595" y2="227.945" stroke="#333" stroke-width="1.4"/>
<line x1="171.626" y1="225.859" x2="168.08" y2="215.429" stroke="#333" stroke-width="1.4"/>
<line x1="79.4294" y1="74.2147" x2="83.3926" y2="88.3988" stroke="#333" stroke-width="1.4"/>
<line x1="139.712" y1="128.865" x2="129.699" y2="131.16" stroke="#333" stroke-width="1.4"/>
<line x1="64.6196" y1="135.331" x2="68.5828" y2="123.442" stroke="#333" stroke-width="1.4"/>
<line x1="143.049" y1="147.847" x2="158.276" y2="157.025" stroke="#333" stroke-width="1.4"/>
<line x1="59.8221" y1="160.362" x2="62.1166" y2="172.46" stroke="#333" stroke-width="1.4"/>
<line x1="59.8221" y1="160.362" x2="64.411" y2="149.933" stroke="#333" stroke-width="1.4"/>
<line x1="184.35" y1="183.098" x2="173.92" y2="174.129" stroke="#333" stroke-width="1.4"/>
<line x1="19.5644" y1="135.331" x2="19.5644" y2="147.012" stroke="#333" stroke-width="1.4"/>
<line x1="171.834" y1="195.822" x2="166.202" y2="191.025" stroke="#333" stroke-width="1.4"/>
<line x1="118.853" y1="222.313" x2="100.914" y2="223.147" stroke="#333" stroke-width="1.4"/>
<line x1="118.853" y1="222.313" x2="111.969" y2="215.012" stroke="#333" stroke-width="1.4"/>
<line x1="83.3926" y1="88.3988" x2="75.0491" y2="96.3252" stroke="#333" stroke-width="1.4"/>
<line x1="156.399" y1="21.2331" x2="155.356" y2="33.5399" stroke="#333" stroke-width="1.4"/>
<line x1="156.399" y1="21.2331" x2="145.135" y2="25.6135" stroke="#333" stroke-width="1.4"/>
<line x1="44.1779" y1="181.012" x2="34.3742" y2="175.589" stroke="#333" stroke-width="1.4"/>
<line x1="44.1779" y1="181.012" x2="45.0123" y2="170.166" stroke="#333" stroke-width="1.4"/>
<line x1="44.1779" y1="181.012" x2="50.227" y2="192.485" stroke="#333" stroke-width="1.4"/>
<line x1="181.638" y1="126.988" x2="172.252" y2="136.374" stroke="#333" stroke-width="1.4"/>
<line x1="147.847" y1="62.1166" x2="140.963" y2="46.2638" stroke="#333" stroke-width="1.4"/>
<line x1="147.847" y1="62.1166" x2="159.319" y2="65.0368" stroke="#333" stroke-width="1.4"/>
<line x1="147.847" y1="62.1166" x2="152.227" y2="72.7546" stroke="#333" stroke-width="1.4"/>
<line x1="85.4785" y1="181.847" x2="96.9509" y2="178.926" stroke="#333" stroke-width="1.4"/>
<line x1="62.1166" y1="188.104" x2="50.227" y2="192.485" stroke="#333" stroke-width="1.4"/>
<line x1="62.1166" y1="188.104" x2="56.0675" y2="180.178" stroke="#333" stroke-width="1.4"/>
<line x1="94.0307" y1="155.356" x2="87.773" y2="160.362" stroke="#333" stroke-width="1.4"/>
<line x1="27.6994" y1="222.104" x2="42.092" y2="216.055" stroke="#333" stroke-width="1.4"/>
<line x1="149.307" y1="204.374" x2="136.374" y2="201.454" stroke="#333" stroke-width="1.4"/>
<line x1="149.307" y1="204.374" x2="144.509" y2="194.988" stroke="#333" stroke-width="1.4"/>
<line x1="56.0675" y1="180.178" x2="50.227" y2="192.485" stroke="#333" stroke-width="1.4"/>
<line x1="202.08" y1="115.098" x2="209.798" y2="120.939" stroke="#333" stroke-width="1.4"/>
<line x1="202.08" y1="115.098" x2="214.595" y2="108.215" stroke="#333" stroke-width="1.4"/>
<line x1="214.595" y1="108.215" x2="209.798" y2="120.939" stroke="#333" stroke-width="1.4"/>
<line x1="219.393" y1="155.356" x2="220.436" y2="144.092" stroke="#333" stroke-width="1.4"/>
<line x1="220.436" y1="144.092" x2="208.129" y2="139.294" stroke="#333" stroke-width="1.4"/>
<line x1="80.8896" y1="210.423" x2="67.7485" y2="201.037" stroke="#333" stroke-width="1.4"/>
<line x1="80.8896" y1="210.423" x2="95.4908" y2="214.804" stroke="#333" stroke-width="1.4"/>
<line x1="80.8896" y1="210.423" x2="83.8098" y2="198.951" stroke="#333" stroke-width="1.4"/>
<line x1="25.8221" y1="164.534" x2="21.8589" y2="157.025" stroke="#333" stroke-width="1.4"/>
<line x1="132.202" y1="100.08" x2="128.239" y2="94.6564" stroke="#333" stroke-width="1.4"/>
<line x1="100.914" y1="223.147" x2="112.595" y2="231.908" stroke="#333" stroke-width="1.4"/>
<line x1="100.914" y1="223.147" x2="95.4908" y2="214.804" stroke="#333" stroke-width="1.4"/>
<line x1="100.914" y1="223.147" x2="111.969" y2="215.012" stroke="#333" stroke-width="1.4"/>
<line x1="77.5521" y1="119.896" x2="68.5828" y2="123.442" stroke="#333" stroke-width="1.4"/>
<line x1="158.276" y1="157.025" x2="165.785" y2="170.583" stroke="#333" stroke-width="1.4"/>
<line x1="163.074" y1="178.718" x2="166.202" y2="191.025" stroke="#333" stroke-width="1.4"/>
<line x1="163.074" y1="178.718" x2="165.785" y2="170.583" stroke="#333" stroke-width="1.4"/>
<line x1="108.006" y1="39.7975" x2="104.669" y2="59.1963" stroke="#333" stroke-width="1.4"/>
<line x1="170.374" y1="111.135" x2="185.81" y2="114.89" stroke="#333" stroke-width="1.4"/>
<line x1="170.374" y1="111.135" x2="169.54" y2="95.2822" stroke="#333" stroke-width="1.4"/>
<line x1="105.294" y1="167.454" x2="124.693" y2="159.945" stroke="#333" stroke-width="1.4"/>
<line x1="105.294" y1="167.454" x2="96.9509" y2="178.926" stroke="#333" stroke-width="1.4"/>
<line x1="105.294" y1="167.454" x2="105.294" y2="153.687" stroke="#333" stroke-width="1.4"/>
<line x1="93.1963" y1="134.497" x2="81.9325" y2="140.337" stroke="#333" stroke-width="1.4"/>
<line x1="93.1963" y1="134.497" x2="92.5706" y2="147.638" stroke="#333" stroke-width="1.4"/>
<line x1="93.1963" y1="134.497" x2="95.0736" y2="127.196" stroke="#333" stroke-width="1.4"/>
<line x1="99.2454" y1="107.589" x2="106.546" y2="99.6626" stroke="#333" stroke-width="1.4"/>
<line x1="99.2454" y1="107.589" x2="100.288" y2="116.558" stroke="#333" stroke-width="1.4"/>
<line x1="21.8589" y1="157.025" x2="36.8773" y2="150.767" stroke="#333" stroke-width="1.4"/>
<line x1="36.8773" y1="150.767" x2="19.5644" y2="147.012" stroke="#333" stroke-width="1.4"/>
<line x1="145.135" y1="25.6135" x2="155.356" y2="33.5399" stroke="#333" stroke-width="1.4"/>
<line x1="173.92" y1="174.129" x2="165.785" y2="170.583" stroke="#333" stroke-width="1.4"/>
<line x1="173.92" y1="174.129" x2="189.147" y2="169.748" stroke="#333" stroke-width="1.4"/>
<line x1="169.54" y1="95.2822" x2="173.294" y2="86.5215" stroke="#333" stroke-width="1.4"/>
<line x1="173.294" y1="86.5215" x2="182.681" y2="97.1595" stroke="#333" stroke-width="1.4"/>
<line x1="51.0613" y1="126.779" x2="68.5828" y2="123.442" stroke="#333" stroke-width="1.4"/>
<line x1="62.1166" y1="172.46" x2="76.092" y2="175.589" stroke="#333" stroke-width="1.4"/>
<line x1="105.294" y1="153.687" x2="92.5706" y2="147.638" stroke="#333" stroke-width="1.4"/>
<line x1="72.3374" y1="39.3804" x2="62.1166" y2="52.1043" stroke="#333" stroke-width="1.4"/>
<line x1="72.3374" y1="39.3804" x2="70.0429" y2="31.6626" stroke="#333" stroke-width="1.4"/>
<line x1="153.896" y1="96.7423" x2="155.147" y2="84.6442" stroke="#333" stroke-width="1.4"/>
<line x1="153.896" y1="96.7423" x2="142.423" y2="88.3988" stroke="#333" stroke-width="1.4"/>
<line x1="111.135" y1="157.859" x2="124.693" y2="159.945" stroke="#333" stroke-width="1.4"/>
<line x1="138.877" y1="185.184" x2="131.577" y2="179.552" stroke="#333" stroke-width="1.4"/>
<line x1="144.509" y1="194.988" x2="136.374" y2="201.454" stroke="#333" stroke-width="1.4"/>
<line x1="130.325" y1="82.1411" x2="128.239" y2="94.6564" stroke="#333" stroke-width="1.4"/>
<line x1="81.9325" y1="140.337" x2="68.5828" y2="123.442" stroke="#333" stroke-width="1.4"/>
<line x1="42.092" y1="216.055" x2="39.589" y2="199.994" stroke="#333" stroke-width="1.4"/>
<line x1="105.503" y1="90.0675" x2="106.546" y2="99.6626" stroke="#333" stroke-width="1.4"/>
<line x1="105.503" y1="90.0675" x2="128.239" y2="94.6564" stroke="#333" stroke-width="1.4"/>
<line x1="111.552" y1="122.816" x2="122.816" y2="126.779" stroke="#333" stroke-width="1.4"/>
<line x1="111.552" y1="122.816" x2="100.288" y2="116.558" stroke="#333" stroke-width="1.4"/>
<line x1="122.816" y1="126.779" x2="129.699" y2="131.16" stroke="#333" stroke-width="1.4"/>
<line x1="152.227" y1="72.7546" x2="159.319" y2="65.0368" stroke="#333" stroke-width="1.4"/>
<line x1="152.227" y1="72.7546" x2="138.46" y2="77.9693" stroke="#333" stroke-width="1.4"/>
<line x1="122.399" y1="173.294" x2="131.577" y2="179.552" stroke="#333" stroke-width="1.4"/>
<line x1="62.1166" y1="52.1043" x2="47.0982" y2="51.4785" stroke="#333" stroke-width="1.4"/>
<line x1="140.963" y1="46.2638" x2="130.325" y2="40.6319" stroke="#333" stroke-width="1.4"/>
<line x1="172.252" y1="136.374" x2="200.202" y2="131.368" stroke="#333" stroke-width="1.4"/>
<line x1="67.7485" y1="201.037" x2="60.4479" y2="206.46" stroke="#333" stroke-width="1.4"/>
<line x1="67.7485" y1="201.037" x2="60.4479" y2="195.613" stroke="#333" stroke-width="1.4"/>
<line x1="178.301" y1="220.436" x2="180.595" y2="227.945" stroke="#333" stroke-width="1.4"/>
<line x1="68.7914" y1="183.098" x2="76.092" y2="175.589" stroke="#333" stroke-width="1.4"/>
<line x1="92.362" y1="196.239" x2="83.8098" y2="198.951" stroke="#333" stroke-width="1.4"/>
<line x1="200.202" y1="131.368" x2="185.81" y2="114.89" stroke="#333" stroke-width="1.4"/>
<line x1="129.699" y1="131.16" x2="125.11" y2="142.84" stroke="#333" stroke-width="1.4"/>
<line x1="125.11" y1="142.84" x2="124.693" y2="159.945" stroke="#333" stroke-width="1.4"/>
<line x1="142.423" y1="88.3988" x2="155.147" y2="84.6442" stroke="#333" stroke-width="1.4"/>
<line x1="168.08" y1="215.429" x2="174.337" y2="206.669" stroke="#333" stroke-width="1.4"/>
<line x1="60.4479" y1="206.46" x2="60.4479" y2="195.613" stroke="#333" stroke-width="1.4"/>
<line x1="60.4479" y1="195.613" x2="50.227" y2="192.485" stroke="#333" stroke-width="1.4"/>
</svg>
